<?xml version="1.0" standalone="no"?>
<!DOCTYPE svg PUBLIC "-//W3C//DTD SVG 20010904//EN"
 "http://www.w3.org/TR/2001/REC-SVG-20010904/DTD/svg10.dtd">
<svg version="1.0" xmlns="http://www.w3.org/2000/svg"
 width="40.000000pt" height="40.000000pt" viewBox="0 0 200.000000 200.000000"
 preserveAspectRatio="xMidYMid meet">
<metadata>
Created by potrace 1.16, written by Peter Selinger 2001-2019
</metadata>
<g transform="translate(0.000000,200.000000) scale(0.100000,-0.100000)"
fill="#000000" stroke="none">
<path d="M843 1989 c-35 -6 -63 -14 -63 -17 0 -4 14 -13 30 -20 99 -44 62
-212 -46 -212 -104 0 -161 114 -93 186 29 31 26 30 -62 -7 -145 -62 -327 -203
-407 -316 l-23 -33 166 0 c177 0 223 -9 245 -49 8 -15 11 -157 11 -478 -1
-251 -3 -458 -6 -461 -4 -4 -101 -6 -157 -3 -17 1 -18 30 -18 456 l0 455 -30
0 -30 0 0 -530 0 -530 -91 0 -90 0 23 -32 c45 -65 168 -178 250 -232 175 -114
337 -161 553 -160 145 0 222 13 338 55 l57 22 0 741 -1 741 180 0 181 0 27
-28 28 -27 5 -538 5 -537 31 50 c45 74 100 210 121 300 25 110 25 320 0 430
-85 370 -375 665 -742 756 -95 24 -300 33 -392 18z m5 -531 l3 -107 29 11 30
10 0 99 0 99 90 0 90 0 0 -99 0 -99 30 -10 29 -11 3 107 3 107 88 3 c85 3 87
2 87 -20 1 -13 1 -95 1 -184 0 -145 2 -167 24 -230 33 -92 33 -173 1 -267 -22
-65 -25 -89 -25 -237 0 -91 -1 -173 -1 -183 0 -17 -11 -18 -181 -15 l-181 3
-29 33 c-26 29 -29 40 -29 96 0 62 -1 64 -30 75 l-30 10 0 -65 c0 -136 -30
-154 -265 -154 l-165 0 0 40 0 39 123 3 122 3 2 140 c1 124 -1 148 -23 212
-31 93 -31 173 0 266 22 65 24 89 25 247 0 96 0 179 1 183 0 4 39 6 88 5 l87
-3 3 -107z"/>
<path d="M919 1363 c-20 -5 -45 -116 -59 -260 -11 -114 -1 -259 26 -385 19
-86 21 -88 114 -88 93 0 95 2 114 88 38 177 38 387 0 564 -13 62 -21 77 -38
82 -24 6 -132 6 -157 -1z"/>
<path d="M773 1291 c-190 -150 -190 -432 0 -582 27 -21 52 -39 57 -39 4 0 -3
33 -16 74 -59 186 -57 351 5 529 11 31 16 57 11 57 -4 0 -30 -18 -57 -39z"/>
<path d="M1181 1273 c62 -178 64 -343 5 -529 -13 -41 -21 -74 -16 -74 16 0 88
60 118 98 60 75 77 126 77 232 0 106 -17 157 -77 232 -30 39 -102 98 -119 98
-4 0 1 -26 12 -57z"/>
<path d="M144 1515 c-45 -74 -100 -210 -121 -300 -25 -110 -25 -320 1 -430 22
-95 73 -223 118 -297 l33 -53 3 282 c1 156 1 410 0 565 l-3 283 -31 -50z"/>
<path d="M1580 840 l0 -651 20 11 c27 15 170 156 199 198 l22 32 -90 0 -91 0
0 530 0 530 -30 0 -30 0 0 -650z"/>
</g>
</svg>
