<svg version="1.1" xmlns="http://www.w3.org/2000/svg" height="13px" width="13px" viewBox="0 0 1025 1024"><path d="M635.826663 206.283539l0-1.053192-1.178164 0L635.826663 206.283539 635.826663 206.283539 635.826663 206.283539zM504.74003 16.462047c-19.354546 0-38.344254 1.159015-57.021532 3.358121-45.801257 5.165176-89.706768 16.565855-130.976779 33.125662 0 0 340.287868 335.554047 349.35943 348.031097L666.101148 43.133506c-10.143903-3.439756-20.489373-6.535838-30.955784-9.432368C593.586103 22.56653 549.842854 16.462047 504.74003 16.462047L504.74003 16.462047 504.74003 16.462047 504.74003 16.462047zM635.826663 206.283539l-1.178164-1.053192 1.178164 0L635.826663 206.283539 635.826663 206.283539 635.826663 206.283539zM817.869652 388.149148l0.577492-0.809295-0.577492-0.783091L817.869652 388.149148 817.869652 388.149148 817.869652 388.149148zM864.88334 162.243986c-13.636066-13.597768-27.932266-26.157461-42.689049-37.807076-36.084678-28.566197-75.198921-51.533847-116.084946-68.825346 0 0 2.510528 476.905524 0 492.138007l253.996667-253.058369c-4.747931-9.553309-9.888919-19.066304-15.285899-28.388817C923.271501 229.121178 896.777422 193.979837 864.88334 162.243986L864.88334 162.243986 864.88334 162.243986 864.88334 162.243986zM817.869652 388.149148l0-1.592386 0.701456 0.783091L817.869652 388.149148 817.869652 388.149148 817.869652 388.149148zM819.270549 651.312114l0-1.053192-1.059239 1.053192L819.270549 651.312114 819.270549 651.312114 819.270549 651.312114zM972.058986 334.382938c0 0-336.664686 339.033108-349.276787 348.051254l359.165706 0c3.463944-10.105605 6.561034-20.427895 9.418258-30.846937 11.216244-41.500807 17.358016-84.953798 17.358016-129.932658 0-19.239652-1.201344-38.200133-3.419599-56.825003C1000.120256 419.206724 988.730664 375.460452 972.058986 334.382938L972.058986 334.382938 972.058986 334.382938 972.058986 334.382938zM819.270549 651.312114l-1.059239 0 1.059239-1.053192L819.270549 651.312114 819.270549 651.312114 819.270549 651.312114zM634.383438 835.36675l-1.490594 0 0.726652 0.76495L634.383438 835.36675 634.383438 835.36675 634.383438 835.36675zM472.609105 722.207562l253.996667 253.047283c9.668202-4.771111 19.133829-9.811316 28.527899-15.228452 37.316258-21.375264 72.524116-47.815928 104.473629-79.652563 13.587689-13.554431 26.161492-27.840553 37.892742-42.53485 28.619613-35.964745 51.712234-74.892538 69.071258-115.670724C966.580372 722.168256 487.939349 724.670721 472.609105 722.207562L472.609105 722.207562 472.609105 722.207562 472.609105 722.207562zM634.383438 835.36675l-0.76495 0.76495-0.726652-0.76495L634.383438 835.36675 634.383438 835.36675 634.383438 835.36675zM373.534471 835.871678l1.053192 0-1.053192-1.053192L373.534471 835.871678 373.534471 835.871678 373.534471 835.871678zM342.965697 640.631033 342.965697 998.516783c10.183208 3.463944 20.543796 6.580183 30.947721 9.39407 41.6157 11.172906 85.271267 17.277389 130.422468 17.277389 19.244691 0 38.282776-1.197313 56.930826-3.348042 45.791178-5.223631 89.706768-16.573917 130.976779-33.179077C692.27675 988.661123 352.038266 653.202821 342.965697 640.631033L342.965697 640.631033 342.965697 640.631033 342.965697 640.631033zM373.534471 835.871678l0-1.159015 1.138858 1.159015L373.534471 835.871678 373.534471 835.871678 373.534471 835.871678zM190.902904 651.861387l0-1.573237-0.784099 0.809295L190.902904 651.861387 190.902904 651.861387 190.902904 651.861387zM49.427463 744.438481c4.757001 9.673242 9.888919 19.123751 15.280859 28.427115 21.457906 37.225552 47.998347 72.346736 79.932742 104.141042 13.592729 13.597768 27.922188 26.105053 42.678971 37.734511 36.122976 28.619613 75.093098 51.537878 116.103087 68.835424 0 0.024188-2.588131-476.923665-0.139082-492.196462L49.427463 744.438481 49.427463 744.438481zM190.902904 651.861387l-0.784099-0.76495 0.784099-0.809295L190.902904 651.861387 190.902904 651.861387 190.902904 651.861387zM189.984762 390.116451l0 0.865734 0.971557-0.865734L189.984762 390.116451 189.984762 390.116451 189.984762 390.116451zM17.301577 390.255533c-11.177946 41.467548-17.301577 84.954806-17.301577 129.947775 0 19.172127 1.216462 38.195094 3.410528 56.766548 5.184325 45.685355 16.53058 89.427596 33.284901 130.470844 0 0 336.626388-339.0321 349.238489-348.021019L26.723867 359.419681C23.26597 369.475902 20.162833 379.846568 17.301577 390.255533L17.301577 390.255533 17.301577 390.255533 17.301577 390.255533zM189.984762 390.116451l0.971557 0-0.971557 0.865734L189.984762 390.116451 189.984762 390.116451 189.984762 390.116451zM373.326856 207.082756l-0.703472 0.807279 1.592386 0L373.326856 207.082756 373.326856 207.082756 373.326856 207.082756zM251.153553 82.118746c-37.378744 21.429687-72.606759 47.874382-104.463551 79.619304-13.728787 13.642113-26.252198 27.922188-37.955228 42.548959C80.065777 240.246716 57.026571 279.217846 39.625218 320.039369c0 0 478.742815-2.543786 494.018635-0.090706L279.681452 66.900373C270.02232 71.709782 260.475058 76.745955 251.153553 82.118746L251.153553 82.118746 251.153553 82.118746 251.153553 82.118746zM373.326856 207.082756l0.888914 0.807279-1.592386 0L373.326856 207.082756 373.326856 207.082756 373.326856 207.082756zM373.326856 207.082756"></path></svg>